<svg xmlns="http://www.w3.org/2000/svg" width="14.469" height="14" viewBox="0 0 14.469 14">
  <defs>
    <style>
      .cls-1 {
        fill-rule: evenodd;
      }
    </style>
  </defs>
  <path id="icon_copy_4" data-name="icon copy 4" class="cls-1" d="M287.958,703.161H285.7v2.258h-0.9v-2.258h-2.258v-0.9H284.8V700h0.9v2.258h2.258v0.9Zm-7.666-2.028a2.441,2.441,0,0,1,.382.31,2.234,2.234,0,0,1,.372.387,3.415,3.415,0,0,1,.341.682,3.114,3.114,0,0,1,.122.917,2.616,2.616,0,0,1-.44,1.538,4.82,4.82,0,0,1-.44.515q-0.256.237-.548,0.481a2.489,2.489,0,0,0-.307.375,0.814,0.814,0,0,0-.166.507,0.655,0.655,0,0,0,.17.463,3.62,3.62,0,0,0,.281.306l0.631,0.5a6.228,6.228,0,0,1,1.03,1.022,2.538,2.538,0,0,1,.435,1.485,2.963,2.963,0,0,1-1.193,2.307A5.54,5.54,0,0,1,277.393,714a4.617,4.617,0,0,1-2.915-.8,2.147,2.147,0,0,1-.972-1.753,2.456,2.456,0,0,1,.316-1.107,2.68,2.68,0,0,1,1.111-1.073,5.928,5.928,0,0,1,1.9-.662,14.5,14.5,0,0,1,1.634-.157,3.851,3.851,0,0,1-.358-0.545,1.212,1.212,0,0,1-.183-0.676,0.975,0.975,0,0,1,.07-0.4c0.04-.111.078-0.213,0.113-0.307a5.529,5.529,0,0,1-.6.035,2.907,2.907,0,0,1-2.262-.9,2.636,2.636,0,0,1-.814-1.913,3.217,3.217,0,0,1,1.154-2.393,4.459,4.459,0,0,1,1.783-.706,7.726,7.726,0,0,1,1.525-.2h3.644l-1.072.677Zm-2.467,7.836a8.264,8.264,0,0,0-1.18.253c-0.095.035-.228,0.088-0.4,0.158a2.425,2.425,0,0,0-.524.323,1.909,1.909,0,0,0-.435.542,1.57,1.57,0,0,0-.2.821,1.827,1.827,0,0,0,.888,1.555,3.942,3.942,0,0,0,2.307.63,3.278,3.278,0,0,0,2.006-.559,1.674,1.674,0,0,0,.674-1.373,1.711,1.711,0,0,0-.461-1.188,11.255,11.255,0,0,0-1.527-1.18c-0.118-.011-0.257-0.017-0.417-0.017A4.909,4.909,0,0,0,277.825,708.969Zm1.547-6.848a1.857,1.857,0,0,0-.6-0.713,1.727,1.727,0,0,0-.982-0.329,1.851,1.851,0,0,0-1.38.464,2.149,2.149,0,0,0-.4,1.331,4.122,4.122,0,0,0,.59,2.022,2.8,2.8,0,0,0,.737.832,1.663,1.663,0,0,0,1.032.341,1.761,1.761,0,0,0,1.223-.508,1.818,1.818,0,0,0,.3-0.7,5.771,5.771,0,0,0,.04-0.6A4.584,4.584,0,0,0,279.372,702.121Z" transform="translate(-273.5 -700)"/>
</svg>
