<svg xmlns="http://www.w3.org/2000/svg" width="10.906" height="13.969" viewBox="0 0 10.906 13.969">
  <defs>
    <style>
      .cls-1 {
        fill-rule: evenodd;
      }
    </style>
  </defs>
  <path id="icon_copy_4" data-name="icon copy 4" class="cls-1" d="M313.811,700a5.037,5.037,0,0,1,4.944,2.841,5.314,5.314,0,0,1,.34,1.112c0.038,0.187.011,0.374,0.045,0.582a1.851,1.851,0,0,1-.012.515q-0.024.3-.05,0.6a10.43,10.43,0,0,1-.284,1.257,5.819,5.819,0,0,1-1.1,1.922,3.916,3.916,0,0,1-2.135,1.212,3.357,3.357,0,0,1-1.538-.038,2.175,2.175,0,0,1-1.014-.6,3.557,3.557,0,0,0-.212-0.288v0.011q-0.285,1.1-.569,2.209a7.039,7.039,0,0,1-.841,1.745c-0.164.257-.338,0.5-0.519,0.736-0.044.058-.129,0.243-0.251,0.161a1.956,1.956,0,0,1-.111-0.648,7.189,7.189,0,0,1,.033-2.2l1.1-4.657-0.117-.3a4.725,4.725,0,0,1-.123-0.581,1.933,1.933,0,0,1-.011-0.6c0.026-.156.021-0.288,0.056-0.426a1.847,1.847,0,0,1,1.059-1.379,1.129,1.129,0,0,1,1.522,1.323,6,6,0,0,1-.134.7,16.96,16.96,0,0,0-.613,2.215,1.016,1.016,0,0,0,.15.642,1.368,1.368,0,0,0,1.555.615,1.885,1.885,0,0,0,.5-0.194,3.616,3.616,0,0,0,1.483-2.325c0.063-.243.085-0.484,0.134-0.748a4.634,4.634,0,0,0-.056-1.9,2.825,2.825,0,0,0-1.093-1.551,3.48,3.48,0,0,0-1.092-.476,4.812,4.812,0,0,0-2.391.083,3.7,3.7,0,0,0-2.6,2.979,2.952,2.952,0,0,0,.212,1.861c0.061,0.1.122,0.192,0.184,0.288a0.855,0.855,0,0,1,.228.343,0.666,0.666,0,0,1-.055.3,0.935,0.935,0,0,1-.363.775,1.191,1.191,0,0,1-.618-0.26,2.948,2.948,0,0,1-1.115-1.811c-0.055-.217-0.051-0.436-0.089-0.681a2.886,2.886,0,0,1,.016-0.881,6.406,6.406,0,0,1,.162-0.753,5.131,5.131,0,0,1,2.8-3.161,7.693,7.693,0,0,1,1.616-.488l0.714-.077Z" transform="translate(-308.25 -700)"/>
</svg>
