<svg xmlns="http://www.w3.org/2000/svg" width="32" height="32" viewBox="0 0 32 32">
  <defs>
    <style>
      .cls-1 {
        fill-rule: evenodd;
      }
    </style>
  </defs>
  <path id="list" class="cls-1" d="M755,1023.01a4,4,0,1,1-4,4A4,4,0,0,1,755,1023.01Zm0,1.61a2.39,2.39,0,1,1-2.389,2.39A2.389,2.389,0,0,1,755,1024.62Zm8,1.44V1028h20v-1.94H763Zm0-12V1016h20v-1.94H763Zm-0.063,24V1040H783v-1.94H762.937ZM755,1035.01a4,4,0,1,1-4,4A4,4,0,0,1,755,1035.01Zm0,1.61a2.39,2.39,0,1,1-2.389,2.39A2.389,2.389,0,0,1,755,1036.62Zm0-25.61a4,4,0,1,1-4,4A4,4,0,0,1,755,1011.01Zm0,1.61a2.39,2.39,0,1,1-2.389,2.39A2.389,2.389,0,0,1,755,1012.62Z" transform="translate(-751 -1011)"/>
</svg>
