<svg xmlns="http://www.w3.org/2000/svg" width="23.938" height="32" viewBox="0 0 23.938 32">
  <defs>
    <style>
      .cls-1 {
        fill-rule: evenodd;
      }
    </style>
  </defs>
  <path id="location_pin" data-name="location pin" class="cls-1" d="M494,1043s-11.969-6.97-11.969-19c0-4.97,1.842-13,11.969-13,10.1,0,11.969,7,11.969,13C505.969,1036.09,494,1043,494,1043Zm0-23.97a3.985,3.985,0,1,1-4,3.99A4,4,0,0,1,494,1019.03Zm0,1.97a2,2,0,1,1-2,2A2,2,0,0,1,494,1021Zm0,19.76s-10.292-6.06-10.292-16.53c0-4.32,1.584-11.3,10.292-11.3,8.683,0,10.291,6.09,10.291,11.3C504.291,1034.75,494,1040.76,494,1040.76Zm0-21.73a3.985,3.985,0,1,1-4,3.99A4,4,0,0,1,494,1019.03Zm0,1.97a2,2,0,1,1-2,2A2,2,0,0,1,494,1021Z" transform="translate(-482.031 -1011)"/>
</svg>
