<svg xmlns="http://www.w3.org/2000/svg" width="14.031" height="18" viewBox="0 0 14.031 18">
  <defs>
    <style>
      .cls-1 {
        fill: #666;
        fill-rule: evenodd;
      }
    </style>
  </defs>
  <path id="Pinterest" class="cls-1" d="M269.115,1762c3.173-.04,5.407,1.5,6.355,3.65a7.13,7.13,0,0,1,.437,1.43c0.049,0.24.014,0.48,0.057,0.75a2.355,2.355,0,0,1-.014.66c-0.022.26-.043,0.52-0.065,0.78a13.529,13.529,0,0,1-.365,1.61,7.39,7.39,0,0,1-1.411,2.47,4.983,4.983,0,0,1-2.744,1.56,4.247,4.247,0,0,1-1.978-.05,2.761,2.761,0,0,1-1.3-.77c-0.091-.11-0.168-0.26-0.272-0.37v0.02c-0.244.94-.487,1.89-0.731,2.84a9.053,9.053,0,0,1-1.082,2.24c-0.21.33-.434,0.64-0.666,0.95-0.056.07-.166,0.31-0.322,0.2a2.451,2.451,0,0,1-.144-0.83,9.269,9.269,0,0,1,.043-2.83c0.473-1.99.946-3.99,1.419-5.98-0.05-.13-0.1-0.26-0.151-0.39a5.847,5.847,0,0,1-.157-0.74,2.518,2.518,0,0,1-.015-0.77c0.033-.2.027-0.37,0.072-0.55a2.371,2.371,0,0,1,1.361-1.77,1.448,1.448,0,0,1,1.956,1.7,7.744,7.744,0,0,1-.172.9,21.8,21.8,0,0,0-.788,2.84,1.31,1.31,0,0,0,.194.83,1.752,1.752,0,0,0,2,.79,2.488,2.488,0,0,0,.637-0.25,4.653,4.653,0,0,0,1.906-2.99c0.081-.31.109-0.62,0.172-0.96a5.942,5.942,0,0,0-.072-2.45,3.628,3.628,0,0,0-1.4-1.99,4.317,4.317,0,0,0-1.4-.61,6.122,6.122,0,0,0-3.074.1,4.773,4.773,0,0,0-3.346,3.83,3.788,3.788,0,0,0,.273,2.39c0.078,0.13.157,0.25,0.236,0.37a1.179,1.179,0,0,1,.294.44,0.868,0.868,0,0,1-.072.4,1.194,1.194,0,0,1-.465.99,1.52,1.52,0,0,1-.8-0.33,3.806,3.806,0,0,1-1.433-2.33c-0.07-.28-0.064-0.56-0.114-0.88a3.687,3.687,0,0,1,.021-1.13,7.716,7.716,0,0,1,.208-0.96,6.612,6.612,0,0,1,3.6-4.07,10.1,10.1,0,0,1,2.077-.63c0.306-.03.612-0.06,0.917-0.1C268.9,1762.01,269.005,1762.01,269.115,1762Z" transform="translate(-261.938 -1762)"/>
</svg>
