<svg xmlns="http://www.w3.org/2000/svg" width="18" height="18" viewBox="0 0 18 18">
  <defs>
    <style>
      .cls-1 {
        fill: #666;
        fill-rule: evenodd;
      }
    </style>
  </defs>
  <path id="RSS" class="cls-1" d="M311.369,1780.5v-1.57a13.319,13.319,0,0,0-13.3-13.3H296.5v-3.13h1.565a16.424,16.424,0,0,1,16.435,16.43v1.57h-3.131Zm-2.9-1.57v1.57h-3.131v-1.57a7.281,7.281,0,0,0-7.278-7.27H296.5v-3.13h1.565A10.419,10.419,0,0,1,308.474,1778.93Zm-9.431-3.52a2.545,2.545,0,1,1-2.543,2.55A2.547,2.547,0,0,1,299.043,1775.41Z" transform="translate(-296.5 -1762.5)"/>
</svg>
