<svg xmlns="http://www.w3.org/2000/svg" width="22.124" height="18.03" viewBox="0 0 22.124 18.03">
  <defs>
    <style>
      .cls-1 {
        fill: #666;
        fill-rule: evenodd;
      }
    </style>
  </defs>
  <path id="Twitter" class="cls-1" d="M164.544,1762a5.193,5.193,0,0,1,3.988,1.43l2.88-.99a8.047,8.047,0,0,1-1.772,2.42l2.437-.66a8.778,8.778,0,0,1-2.327,2.3c0.133,6.93-3.808,11.25-8.972,12.95-3.436,1.14-8.854.46-10.855-1.53,2.773,0.09,5.311-.41,6.535-1.87a4.205,4.205,0,0,1-4.1-3.18h0.111a2.139,2.139,0,0,0,1.661-.11c-2.057-.39-3.057-1.77-3.323-3.95,0.037-.04-0.037-0.4,0-0.44,0.591,0.18,1.182.36,1.773,0.55v-0.11a7.283,7.283,0,0,1-1.551-1.98c-0.555-1.29-.233-3.53.443-3.95,1.535,2.36,5.718,4.41,9.194,4.72,0.037-.07.073-0.15,0.11-0.22A4.473,4.473,0,0,1,164.544,1762Z" transform="translate(-149.938 -1762)"/>
</svg>
