<svg xmlns="http://www.w3.org/2000/svg" width="17.219" height="14" viewBox="0 0 17.219 14">
  <defs>
    <style>
      .cls-1 {
        fill-rule: evenodd;
      }
    </style>
  </defs>
  <path id="logo_copy_2" data-name="logo copy 2" class="cls-1" d="M216.489,700a4.03,4.03,0,0,1,3.1,1.11l2.24-.768a6.209,6.209,0,0,1-1.379,1.878l1.9-.513a6.9,6.9,0,0,1-1.809,1.793,9.827,9.827,0,0,1-6.978,10.072c-2.673.88-6.886,0.351-8.442-1.2,2.156,0.069,4.13-.319,5.082-1.451a3.279,3.279,0,0,1-3.187-2.475H207.1a1.652,1.652,0,0,0,1.292-.086c-1.6-.3-2.377-1.373-2.584-3.073,0.029-.028-0.029-0.313,0-0.341l1.378,0.427V705.3a5.643,5.643,0,0,1-1.206-1.536c-0.431-1-.181-2.749.345-3.073,1.194,1.832,4.447,3.428,7.15,3.67l0.086-.17A3.474,3.474,0,0,1,216.489,700Z" transform="translate(-205.125 -700)"/>
</svg>
