<svg xmlns="http://www.w3.org/2000/svg" width="32.094" height="32" viewBox="0 0 32.094 32">
  <defs>
    <style>
      .cls-1 {
        fill-rule: evenodd;
      }
    </style>
  </defs>
  <path id="user" class="cls-1" d="M920,1043H888s0-8.03,6-8.03,7-1.31,7-1.72v-3.22h6v3.22c0,0.33.937,1.72,6.969,1.72C920.093,1034.97,920,1043,920,1043Zm-3-1.97H891s0-4,4-4c5.256,0,8-1.51,8-2.82V1032h2v2.21c0,1.48,2.717,2.82,8,2.82C917,1037.03,917,1041.03,917,1041.03ZM904,1011c4.418,0,8,4.7,8,10.5s-3.582,10.5-8,10.5-8-4.7-8-10.5S899.582,1011,904,1011Zm-0.016,2.03c3.3,0,5.985,3.81,5.985,8.5s-2.68,8.5-5.985,8.5-5.984-3.8-5.984-8.5S900.679,1013.03,903.984,1013.03Z" transform="translate(-888 -1011)"/>
</svg>
